<?xml version="1.0" encoding="UTF-8" standalone="no"?>
<!DOCTYPE svg PUBLIC "-//W3C//DTD SVG 1.1//EN"
 "http://www.w3.org/Graphics/SVG/1.1/DTD/svg11.dtd">
<!-- Generated by graphviz version 2.40.1 (20161225.0304)
 -->
<!-- Title: dependencies Pages: 1 -->
<svg width="1258pt" height="284pt"
 viewBox="0.00 0.00 1258.00 284.00" xmlns="http://www.w3.org/2000/svg" xmlns:xlink="http://www.w3.org/1999/xlink">
<g id="graph0" class="graph" transform="scale(1 1) rotate(0) translate(4 280)">
<title>dependencies</title>
<polygon fill="#ffffff" stroke="transparent" points="-4,4 -4,-280 1254,-280 1254,4 -4,4"/>
<text text-anchor="start" x="604.0091" y="-42.4" font-family="sans-serif" font-weight="bold" font-size="14.00" fill="#000000">Legend</text>
<polygon fill="#ffffb3" stroke="transparent" points="391,-10 391,-30 411,-30 411,-10 391,-10"/>
<text text-anchor="start" x="414.629" y="-15.4" font-family="sans-serif" font-size="14.00" fill="#000000"> &#160;Declarations</text>
<polygon fill="#8dd3c7" stroke="transparent" points="504,-10 504,-30 524,-30 524,-10 504,-10"/>
<text text-anchor="start" x="527.7251" y="-15.4" font-family="sans-serif" font-size="14.00" fill="#000000"> &#160;Module</text>
<polygon fill="#80b1d3" stroke="transparent" points="590,-10 590,-30 610,-30 610,-10 590,-10"/>
<text text-anchor="start" x="613.7812" y="-15.4" font-family="sans-serif" font-size="14.00" fill="#000000"> &#160;Bootstrap</text>
<polygon fill="#fdb462" stroke="transparent" points="687,-10 687,-30 707,-30 707,-10 687,-10"/>
<text text-anchor="start" x="710.6732" y="-15.4" font-family="sans-serif" font-size="14.00" fill="#000000"> &#160;Providers</text>
<polygon fill="#fb8072" stroke="transparent" points="783,-10 783,-30 803,-30 803,-10 783,-10"/>
<text text-anchor="start" x="806.7258" y="-15.4" font-family="sans-serif" font-size="14.00" fill="#000000"> &#160;Exports</text>
<g id="clust1" class="cluster">
<title>cluster_DemoModule</title>
<polygon fill="none" stroke="#000000" stroke-dasharray="1,5" points="8,-70 8,-268 1242,-268 1242,-70 8,-70"/>
</g>
<g id="clust2" class="cluster">
<title>cluster_DemoModule_declarations</title>
<polygon fill="none" stroke="#000000" points="814,-78 814,-130 1234,-130 1234,-78 814,-78"/>
</g>
<g id="clust6" class="cluster">
<title>cluster_DemoModule_imports</title>
<polygon fill="none" stroke="#000000" points="16,-78 16,-130 806,-130 806,-78 16,-78"/>
</g>
<g id="clust7" class="cluster">
<title>cluster_DemoModule_exports</title>
<polygon fill="none" stroke="#000000" points="602,-208 602,-260 738,-260 738,-208 602,-208"/>
</g>
<!-- DemoComponent -->
<g id="node1" class="node">
<title>DemoComponent</title>
<polygon fill="#ffffb3" stroke="#000000" points="1225.5451,-122 1110.4549,-122 1110.4549,-86 1225.5451,-86 1225.5451,-122"/>
<text text-anchor="middle" x="1168" y="-99.8" font-family="Times,serif" font-size="14.00" fill="#000000">DemoComponent</text>
</g>
<!-- DemoModule -->
<g id="node4" class="node">
<title>DemoModule</title>
<polygon fill="#8dd3c7" stroke="#000000" points="716.7619,-187 713.7619,-191 692.7619,-191 689.7619,-187 623.2381,-187 623.2381,-151 716.7619,-151 716.7619,-187"/>
<text text-anchor="middle" x="670" y="-164.8" font-family="Times,serif" font-size="14.00" fill="#000000">DemoModule</text>
</g>
<!-- DemoComponent&#45;&gt;DemoModule -->
<g id="edge1" class="edge">
<title>DemoComponent&#45;&gt;DemoModule</title>
<path fill="none" stroke="#000000" d="M1168,-122.2921C1168,-144.2057 1168,-178 1168,-178 1168,-178 726.8506,-178 726.8506,-178"/>
<polygon fill="#000000" stroke="#000000" points="726.8507,-174.5001 716.8506,-178 726.8506,-181.5001 726.8507,-174.5001"/>
</g>
<!-- Story00Component -->
<g id="node2" class="node">
<title>Story00Component</title>
<polygon fill="#ffffb3" stroke="#000000" points="1091.6666,-122 966.3334,-122 966.3334,-86 1091.6666,-86 1091.6666,-122"/>
<text text-anchor="middle" x="1029" y="-99.8" font-family="Times,serif" font-size="14.00" fill="#000000">Story00Component</text>
</g>
<!-- Story00Component&#45;&gt;DemoModule -->
<g id="edge2" class="edge">
<title>Story00Component&#45;&gt;DemoModule</title>
<path fill="none" stroke="#000000" d="M1029,-122.1061C1029,-141.3391 1029,-169 1029,-169 1029,-169 726.933,-169 726.933,-169"/>
<polygon fill="#000000" stroke="#000000" points="726.933,-165.5001 716.933,-169 726.9329,-172.5001 726.933,-165.5001"/>
</g>
<!-- Story01Component -->
<g id="node3" class="node">
<title>Story01Component</title>
<polygon fill="#ffffb3" stroke="#000000" points="947.6666,-122 822.3334,-122 822.3334,-86 947.6666,-86 947.6666,-122"/>
<text text-anchor="middle" x="885" y="-99.8" font-family="Times,serif" font-size="14.00" fill="#000000">Story01Component</text>
</g>
<!-- Story01Component&#45;&gt;DemoModule -->
<g id="edge3" class="edge">
<title>Story01Component&#45;&gt;DemoModule</title>
<path fill="none" stroke="#000000" d="M885,-122.027C885,-138.3976 885,-160 885,-160 885,-160 726.917,-160 726.917,-160"/>
<polygon fill="#000000" stroke="#000000" points="726.917,-156.5001 716.917,-160 726.917,-163.5001 726.917,-156.5001"/>
</g>
<!-- DemoComponent  -->
<g id="node10" class="node">
<title>DemoComponent </title>
<polygon fill="#fb8072" stroke="#000000" points="729.5442,-252 610.4558,-252 610.4558,-216 729.5442,-216 729.5442,-252"/>
<text text-anchor="middle" x="670" y="-229.8" font-family="Times,serif" font-size="14.00" fill="#000000">DemoComponent </text>
</g>
<!-- DemoModule&#45;&gt;DemoComponent  -->
<g id="edge9" class="edge">
<title>DemoModule&#45;&gt;DemoComponent </title>
<path fill="none" stroke="#000000" stroke-dasharray="5,2" d="M670,-187.1061C670,-187.1061 670,-205.991 670,-205.991"/>
<polygon fill="#000000" stroke="#000000" points="666.5001,-205.9909 670,-215.991 673.5001,-205.991 666.5001,-205.9909"/>
</g>
<!-- CommonModule -->
<g id="node5" class="node">
<title>CommonModule</title>
<polygon fill="#8dd3c7" stroke="#000000" points="797.6681,-122 794.6681,-126 773.6681,-126 770.6681,-122 686.3319,-122 686.3319,-86 797.6681,-86 797.6681,-122"/>
<text text-anchor="middle" x="742" y="-99.8" font-family="Times,serif" font-size="14.00" fill="#000000">CommonModule</text>
</g>
<!-- CommonModule&#45;&gt;DemoModule -->
<g id="edge4" class="edge">
<title>CommonModule&#45;&gt;DemoModule</title>
<path fill="none" stroke="#000000" d="M701.5235,-122.1061C701.5235,-122.1061 701.5235,-140.991 701.5235,-140.991"/>
<polygon fill="#000000" stroke="#000000" points="698.0236,-140.9909 701.5235,-150.991 705.0236,-140.991 698.0236,-140.9909"/>
</g>
<!-- CloukitThemeModule -->
<g id="node6" class="node">
<title>CloukitThemeModule</title>
<polygon fill="#8dd3c7" stroke="#000000" points="668.4313,-122 665.4313,-126 644.4313,-126 641.4313,-122 527.5687,-122 527.5687,-86 668.4313,-86 668.4313,-122"/>
<text text-anchor="middle" x="598" y="-99.8" font-family="Times,serif" font-size="14.00" fill="#000000">CloukitThemeModule</text>
</g>
<!-- CloukitThemeModule&#45;&gt;DemoModule -->
<g id="edge5" class="edge">
<title>CloukitThemeModule&#45;&gt;DemoModule</title>
<path fill="none" stroke="#000000" d="M645.6673,-122.1061C645.6673,-122.1061 645.6673,-140.991 645.6673,-140.991"/>
<polygon fill="#000000" stroke="#000000" points="642.1673,-140.9909 645.6673,-150.991 649.1673,-140.991 642.1673,-140.9909"/>
</g>
<!-- CloukitDropoutModule -->
<g id="node7" class="node">
<title>CloukitDropoutModule</title>
<polygon fill="#8dd3c7" stroke="#000000" points="510.2162,-122 507.2162,-126 486.2162,-126 483.2162,-122 361.7838,-122 361.7838,-86 510.2162,-86 510.2162,-122"/>
<text text-anchor="middle" x="436" y="-99.8" font-family="Times,serif" font-size="14.00" fill="#000000">CloukitDropoutModule</text>
</g>
<!-- CloukitDropoutModule&#45;&gt;DemoModule -->
<g id="edge6" class="edge">
<title>CloukitDropoutModule&#45;&gt;DemoModule</title>
<path fill="none" stroke="#000000" d="M436,-122.027C436,-138.3976 436,-160 436,-160 436,-160 613.209,-160 613.209,-160"/>
<polygon fill="#000000" stroke="#000000" points="613.209,-163.5001 623.209,-160 613.209,-156.5001 613.209,-163.5001"/>
</g>
<!-- CloukitNotificationModule -->
<g id="node8" class="node">
<title>CloukitNotificationModule</title>
<polygon fill="#8dd3c7" stroke="#000000" points="343.7077,-122 340.7077,-126 319.7077,-126 316.7077,-122 174.2923,-122 174.2923,-86 343.7077,-86 343.7077,-122"/>
<text text-anchor="middle" x="259" y="-99.8" font-family="Times,serif" font-size="14.00" fill="#000000">CloukitNotificationModule</text>
</g>
<!-- CloukitNotificationModule&#45;&gt;DemoModule -->
<g id="edge7" class="edge">
<title>CloukitNotificationModule&#45;&gt;DemoModule</title>
<path fill="none" stroke="#000000" d="M259,-122.1061C259,-141.3391 259,-169 259,-169 259,-169 612.8531,-169 612.8531,-169"/>
<polygon fill="#000000" stroke="#000000" points="612.8531,-172.5001 622.8531,-169 612.853,-165.5001 612.8531,-172.5001"/>
</g>
<!-- CloukitStoryModule -->
<g id="node9" class="node">
<title>CloukitStoryModule</title>
<polygon fill="#8dd3c7" stroke="#000000" points="155.892,-122 152.892,-126 131.892,-126 128.892,-122 24.108,-122 24.108,-86 155.892,-86 155.892,-122"/>
<text text-anchor="middle" x="90" y="-99.8" font-family="Times,serif" font-size="14.00" fill="#000000">CloukitStoryModule</text>
</g>
<!-- CloukitStoryModule&#45;&gt;DemoModule -->
<g id="edge8" class="edge">
<title>CloukitStoryModule&#45;&gt;DemoModule</title>
<path fill="none" stroke="#000000" d="M90,-122.2921C90,-144.2057 90,-178 90,-178 90,-178 613.0275,-178 613.0275,-178"/>
<polygon fill="#000000" stroke="#000000" points="613.0275,-181.5001 623.0275,-178 613.0274,-174.5001 613.0275,-181.5001"/>
</g>
</g>
</svg>
