<?xml version="1.0" encoding="UTF-8" standalone="no"?>
<!DOCTYPE svg PUBLIC "-//W3C//DTD SVG 1.1//EN"
 "http://www.w3.org/Graphics/SVG/1.1/DTD/svg11.dtd">
<!-- Generated by graphviz version 2.40.1 (20161225.0304)
 -->
<!-- Title: dependencies Pages: 1 -->
<svg width="1166pt" height="284pt"
 viewBox="0.00 0.00 1166.00 284.00" xmlns="http://www.w3.org/2000/svg" xmlns:xlink="http://www.w3.org/1999/xlink">
<g id="graph0" class="graph" transform="scale(1 1) rotate(0) translate(4 280)">
<title>dependencies</title>
<polygon fill="#ffffff" stroke="transparent" points="-4,4 -4,-280 1162,-280 1162,4 -4,4"/>
<text text-anchor="start" x="558.0091" y="-42.4" font-family="sans-serif" font-weight="bold" font-size="14.00" fill="#000000">Legend</text>
<polygon fill="#ffffb3" stroke="transparent" points="345,-10 345,-30 365,-30 365,-10 345,-10"/>
<text text-anchor="start" x="368.629" y="-15.4" font-family="sans-serif" font-size="14.00" fill="#000000"> &#160;Declarations</text>
<polygon fill="#8dd3c7" stroke="transparent" points="458,-10 458,-30 478,-30 478,-10 458,-10"/>
<text text-anchor="start" x="481.7251" y="-15.4" font-family="sans-serif" font-size="14.00" fill="#000000"> &#160;Module</text>
<polygon fill="#80b1d3" stroke="transparent" points="544,-10 544,-30 564,-30 564,-10 544,-10"/>
<text text-anchor="start" x="567.7812" y="-15.4" font-family="sans-serif" font-size="14.00" fill="#000000"> &#160;Bootstrap</text>
<polygon fill="#fdb462" stroke="transparent" points="641,-10 641,-30 661,-30 661,-10 641,-10"/>
<text text-anchor="start" x="664.6732" y="-15.4" font-family="sans-serif" font-size="14.00" fill="#000000"> &#160;Providers</text>
<polygon fill="#fb8072" stroke="transparent" points="737,-10 737,-30 757,-30 757,-10 737,-10"/>
<text text-anchor="start" x="760.7258" y="-15.4" font-family="sans-serif" font-size="14.00" fill="#000000"> &#160;Exports</text>
<g id="clust1" class="cluster">
<title>cluster_CloukitNotificationModule</title>
<polygon fill="none" stroke="#000000" stroke-dasharray="1,5" points="8,-70 8,-268 1150,-268 1150,-70 8,-70"/>
</g>
<g id="clust2" class="cluster">
<title>cluster_CloukitNotificationModule_declarations</title>
<polygon fill="none" stroke="#000000" points="408,-78 408,-130 1142,-130 1142,-78 408,-78"/>
</g>
<g id="clust6" class="cluster">
<title>cluster_CloukitNotificationModule_imports</title>
<polygon fill="none" stroke="#000000" points="272,-78 272,-130 400,-130 400,-78 272,-78"/>
</g>
<g id="clust7" class="cluster">
<title>cluster_CloukitNotificationModule_exports</title>
<polygon fill="none" stroke="#000000" points="176,-208 176,-260 921,-260 921,-208 176,-208"/>
</g>
<g id="clust9" class="cluster">
<title>cluster_CloukitNotificationModule_providers</title>
<polygon fill="none" stroke="#000000" points="16,-78 16,-130 264,-130 264,-78 16,-78"/>
</g>
<!-- CloukitNotificationOutletLoaderComponent -->
<g id="node1" class="node">
<title>CloukitNotificationOutletLoaderComponent</title>
<polygon fill="#ffffb3" stroke="#000000" points="1133.6259,-122 868.3741,-122 868.3741,-86 1133.6259,-86 1133.6259,-122"/>
<text text-anchor="middle" x="1001" y="-99.8" font-family="Times,serif" font-size="14.00" fill="#000000">CloukitNotificationOutletLoaderComponent</text>
</g>
<!-- CloukitNotificationModule -->
<g id="node4" class="node">
<title>CloukitNotificationModule</title>
<polygon fill="#8dd3c7" stroke="#000000" points="595.7077,-187 592.7077,-191 571.7077,-191 568.7077,-187 426.2923,-187 426.2923,-151 595.7077,-151 595.7077,-187"/>
<text text-anchor="middle" x="511" y="-164.8" font-family="Times,serif" font-size="14.00" fill="#000000">CloukitNotificationModule</text>
</g>
<!-- CloukitNotificationOutletLoaderComponent&#45;&gt;CloukitNotificationModule -->
<g id="edge1" class="edge">
<title>CloukitNotificationOutletLoaderComponent&#45;&gt;CloukitNotificationModule</title>
<path fill="none" stroke="#000000" d="M890.375,-122.1061C890.375,-141.3391 890.375,-169 890.375,-169 890.375,-169 605.667,-169 605.667,-169"/>
<polygon fill="#000000" stroke="#000000" points="605.667,-165.5001 595.667,-169 605.6669,-172.5001 605.667,-165.5001"/>
</g>
<!-- CloukitNotificationOutletComponent -->
<g id="node2" class="node">
<title>CloukitNotificationOutletComponent</title>
<polygon fill="#ffffb3" stroke="#000000" points="849.9832,-122 624.0168,-122 624.0168,-86 849.9832,-86 849.9832,-122"/>
<text text-anchor="middle" x="737" y="-99.8" font-family="Times,serif" font-size="14.00" fill="#000000">CloukitNotificationOutletComponent</text>
</g>
<!-- CloukitNotificationOutletComponent&#45;&gt;CloukitNotificationModule -->
<g id="edge2" class="edge">
<title>CloukitNotificationOutletComponent&#45;&gt;CloukitNotificationModule</title>
<path fill="none" stroke="#000000" d="M634.5894,-122.027C634.5894,-138.3976 634.5894,-160 634.5894,-160 634.5894,-160 605.824,-160 605.824,-160"/>
<polygon fill="#000000" stroke="#000000" points="605.8241,-156.5001 595.824,-160 605.824,-163.5001 605.8241,-156.5001"/>
</g>
<!-- CloukitNotificationComponent -->
<g id="node3" class="node">
<title>CloukitNotificationComponent</title>
<polygon fill="#ffffb3" stroke="#000000" points="606.4902,-122 415.5098,-122 415.5098,-86 606.4902,-86 606.4902,-122"/>
<text text-anchor="middle" x="511" y="-99.8" font-family="Times,serif" font-size="14.00" fill="#000000">CloukitNotificationComponent</text>
</g>
<!-- CloukitNotificationComponent&#45;&gt;CloukitNotificationModule -->
<g id="edge3" class="edge">
<title>CloukitNotificationComponent&#45;&gt;CloukitNotificationModule</title>
<path fill="none" stroke="#000000" d="M511,-122.1061C511,-122.1061 511,-140.991 511,-140.991"/>
<polygon fill="#000000" stroke="#000000" points="507.5001,-140.9909 511,-150.991 514.5001,-140.991 507.5001,-140.9909"/>
</g>
<!-- CloukitNotificationOutletLoaderComponent  -->
<g id="node6" class="node">
<title>CloukitNotificationOutletLoaderComponent </title>
<polygon fill="#fb8072" stroke="#000000" points="912.6256,-252 643.3744,-252 643.3744,-216 912.6256,-216 912.6256,-252"/>
<text text-anchor="middle" x="778" y="-229.8" font-family="Times,serif" font-size="14.00" fill="#000000">CloukitNotificationOutletLoaderComponent </text>
</g>
<!-- CloukitNotificationModule&#45;&gt;CloukitNotificationOutletLoaderComponent  -->
<g id="edge5" class="edge">
<title>CloukitNotificationModule&#45;&gt;CloukitNotificationOutletLoaderComponent </title>
<path fill="none" stroke="#000000" stroke-dasharray="5,2" d="M595.7653,-178C663.3423,-178 746.7144,-178 746.7144,-178 746.7144,-178 746.7144,-205.973 746.7144,-205.973"/>
<polygon fill="#000000" stroke="#000000" points="743.2145,-205.973 746.7144,-215.973 750.2145,-205.973 743.2145,-205.973"/>
</g>
<!-- CloukitNotificationOutletComponent  -->
<g id="node7" class="node">
<title>CloukitNotificationOutletComponent </title>
<polygon fill="#fb8072" stroke="#000000" points="625.9837,-252 396.0163,-252 396.0163,-216 625.9837,-216 625.9837,-252"/>
<text text-anchor="middle" x="511" y="-229.8" font-family="Times,serif" font-size="14.00" fill="#000000">CloukitNotificationOutletComponent </text>
</g>
<!-- CloukitNotificationModule&#45;&gt;CloukitNotificationOutletComponent  -->
<g id="edge6" class="edge">
<title>CloukitNotificationModule&#45;&gt;CloukitNotificationOutletComponent </title>
<path fill="none" stroke="#000000" stroke-dasharray="5,2" d="M511,-187.1061C511,-187.1061 511,-205.991 511,-205.991"/>
<polygon fill="#000000" stroke="#000000" points="507.5001,-205.9909 511,-215.991 514.5001,-205.991 507.5001,-205.9909"/>
</g>
<!-- CloukitNotificationComponent  -->
<g id="node8" class="node">
<title>CloukitNotificationComponent </title>
<polygon fill="#fb8072" stroke="#000000" points="378.4908,-252 183.5092,-252 183.5092,-216 378.4908,-216 378.4908,-252"/>
<text text-anchor="middle" x="281" y="-229.8" font-family="Times,serif" font-size="14.00" fill="#000000">CloukitNotificationComponent </text>
</g>
<!-- CloukitNotificationModule&#45;&gt;CloukitNotificationComponent  -->
<g id="edge7" class="edge">
<title>CloukitNotificationModule&#45;&gt;CloukitNotificationComponent </title>
<path fill="none" stroke="#000000" stroke-dasharray="5,2" d="M426.2236,-178C378.8292,-178 329.2057,-178 329.2057,-178 329.2057,-178 329.2057,-205.973 329.2057,-205.973"/>
<polygon fill="#000000" stroke="#000000" points="325.7057,-205.973 329.2057,-215.973 332.7057,-205.973 325.7057,-205.973"/>
</g>
<!-- CommonModule -->
<g id="node5" class="node">
<title>CommonModule</title>
<polygon fill="#8dd3c7" stroke="#000000" points="391.6681,-122 388.6681,-126 367.6681,-126 364.6681,-122 280.3319,-122 280.3319,-86 391.6681,-86 391.6681,-122"/>
<text text-anchor="middle" x="336" y="-99.8" font-family="Times,serif" font-size="14.00" fill="#000000">CommonModule</text>
</g>
<!-- CommonModule&#45;&gt;CloukitNotificationModule -->
<g id="edge4" class="edge">
<title>CommonModule&#45;&gt;CloukitNotificationModule</title>
<path fill="none" stroke="#000000" d="M385.0395,-122.027C385.0395,-138.3976 385.0395,-160 385.0395,-160 385.0395,-160 416.2836,-160 416.2836,-160"/>
<polygon fill="#000000" stroke="#000000" points="416.2837,-163.5001 426.2836,-160 416.2836,-156.5001 416.2837,-163.5001"/>
</g>
<!-- CloukitNotificationService -->
<g id="node9" class="node">
<title>CloukitNotificationService</title>
<ellipse fill="#fdb462" stroke="#000000" cx="140" cy="-104" rx="115.7638" ry="18"/>
<text text-anchor="middle" x="140" y="-99.8" font-family="Times,serif" font-size="14.00" fill="#000000">CloukitNotificationService</text>
</g>
<!-- CloukitNotificationService&#45;&gt;CloukitNotificationModule -->
<g id="edge8" class="edge">
<title>CloukitNotificationService&#45;&gt;CloukitNotificationModule</title>
<path fill="none" stroke="#000000" d="M219.6934,-117.1537C219.6934,-136.1469 219.6934,-169 219.6934,-169 219.6934,-169 416.3507,-169 416.3507,-169"/>
<polygon fill="#000000" stroke="#000000" points="416.3508,-172.5001 426.3507,-169 416.3507,-165.5001 416.3508,-172.5001"/>
</g>
</g>
</svg>
