<?xml version="1.0" encoding="UTF-8" standalone="no"?>
<!DOCTYPE svg PUBLIC "-//W3C//DTD SVG 1.1//EN"
 "http://www.w3.org/Graphics/SVG/1.1/DTD/svg11.dtd">
<!-- Generated by graphviz version 2.40.1 (20161225.0304)
 -->
<!-- Title: dependencies Pages: 1 -->
<svg width="1281pt" height="355pt"
 viewBox="0.00 0.00 1281.00 355.00" xmlns="http://www.w3.org/2000/svg" xmlns:xlink="http://www.w3.org/1999/xlink">
<g id="graph0" class="graph" transform="scale(1 1) rotate(0) translate(4 351)">
<title>dependencies</title>
<polygon fill="#ffffff" stroke="transparent" points="-4,4 -4,-351 1277,-351 1277,4 -4,4"/>
<text text-anchor="start" x="615.5091" y="-42.4" font-family="sans-serif" font-weight="bold" font-size="14.00" fill="#000000">Legend</text>
<polygon fill="#ffffb3" stroke="transparent" points="402.5,-10 402.5,-30 422.5,-30 422.5,-10 402.5,-10"/>
<text text-anchor="start" x="426.129" y="-15.4" font-family="sans-serif" font-size="14.00" fill="#000000"> &#160;Declarations</text>
<polygon fill="#8dd3c7" stroke="transparent" points="515.5,-10 515.5,-30 535.5,-30 535.5,-10 515.5,-10"/>
<text text-anchor="start" x="539.2251" y="-15.4" font-family="sans-serif" font-size="14.00" fill="#000000"> &#160;Module</text>
<polygon fill="#80b1d3" stroke="transparent" points="601.5,-10 601.5,-30 621.5,-30 621.5,-10 601.5,-10"/>
<text text-anchor="start" x="625.2812" y="-15.4" font-family="sans-serif" font-size="14.00" fill="#000000"> &#160;Bootstrap</text>
<polygon fill="#fdb462" stroke="transparent" points="698.5,-10 698.5,-30 718.5,-30 718.5,-10 698.5,-10"/>
<text text-anchor="start" x="722.1732" y="-15.4" font-family="sans-serif" font-size="14.00" fill="#000000"> &#160;Providers</text>
<polygon fill="#fb8072" stroke="transparent" points="794.5,-10 794.5,-30 814.5,-30 814.5,-10 794.5,-10"/>
<text text-anchor="start" x="818.2258" y="-15.4" font-family="sans-serif" font-size="14.00" fill="#000000"> &#160;Exports</text>
<g id="clust1" class="cluster">
<title>cluster_CloukitNotificationModule</title>
<polygon fill="none" stroke="#000000" stroke-dasharray="1,5" points="8,-70 8,-271 769,-271 769,-70 8,-70"/>
</g>
<g id="clust3" class="cluster">
<title>cluster_CloukitNotificationModule_imports</title>
<polygon fill="none" stroke="#000000" points="593,-78 593,-130 721,-130 721,-78 593,-78"/>
</g>
<g id="clust4" class="cluster">
<title>cluster_CloukitNotificationModule_exports</title>
<polygon fill="none" stroke="#000000" points="16,-211 16,-263 761,-263 761,-211 16,-211"/>
</g>
<g id="clust7" class="cluster">
<title>cluster_DemoModule</title>
<polygon fill="none" stroke="#000000" stroke-dasharray="1,5" points="777,-138 777,-339 1265,-339 1265,-138 777,-138"/>
</g>
<g id="clust9" class="cluster">
<title>cluster_DemoModule_imports</title>
<polygon fill="none" stroke="#000000" points="785,-146 785,-198 1257,-198 1257,-146 785,-146"/>
</g>
<g id="clust10" class="cluster">
<title>cluster_DemoModule_exports</title>
<polygon fill="none" stroke="#000000" points="791,-279 791,-331 927,-331 927,-279 791,-279"/>
</g>
<!-- CommonModule -->
<g id="node1" class="node">
<title>CommonModule</title>
<polygon fill="#8dd3c7" stroke="#000000" points="712.6681,-122 709.6681,-126 688.6681,-126 685.6681,-122 601.3319,-122 601.3319,-86 712.6681,-86 712.6681,-122"/>
<text text-anchor="middle" x="657" y="-99.8" font-family="Times,serif" font-size="14.00" fill="#000000">CommonModule</text>
</g>
<!-- CloukitNotificationModule -->
<g id="node2" class="node">
<title>CloukitNotificationModule</title>
<polygon fill="#8dd3c7" stroke="#000000" points="702.7077,-190 699.7077,-194 678.7077,-194 675.7077,-190 533.2923,-190 533.2923,-154 702.7077,-154 702.7077,-190"/>
<text text-anchor="middle" x="618" y="-167.8" font-family="Times,serif" font-size="14.00" fill="#000000">CloukitNotificationModule</text>
</g>
<!-- CommonModule&#45;&gt;CloukitNotificationModule -->
<g id="edge1" class="edge">
<title>CommonModule&#45;&gt;CloukitNotificationModule</title>
<path fill="none" stroke="#000000" d="M651.885,-122.2228C651.885,-122.2228 651.885,-143.7269 651.885,-143.7269"/>
<polygon fill="#000000" stroke="#000000" points="648.3851,-143.7269 651.885,-153.7269 655.3851,-143.727 648.3851,-143.7269"/>
</g>
<!-- DemoModule -->
<g id="node9" class="node">
<title>DemoModule</title>
<polygon fill="#8dd3c7" stroke="#000000" points="905.7619,-255 902.7619,-259 881.7619,-259 878.7619,-255 812.2381,-255 812.2381,-219 905.7619,-219 905.7619,-255"/>
<text text-anchor="middle" x="859" y="-232.8" font-family="Times,serif" font-size="14.00" fill="#000000">DemoModule</text>
</g>
<!-- CommonModule&#45;&gt;DemoModule -->
<g id="edge5" class="edge">
<title>CommonModule&#45;&gt;DemoModule</title>
<path fill="none" stroke="#000000" d="M712.8988,-104C745.222,-104 779.5569,-104 779.5569,-104 779.5569,-104 779.5569,-231 779.5569,-231 779.5569,-231 801.8695,-231 801.8695,-231"/>
<polygon fill="#000000" stroke="#000000" points="801.8695,-234.5001 811.8695,-231 801.8694,-227.5001 801.8695,-234.5001"/>
</g>
<!-- CloukitNotificationOutletLoaderComponent  -->
<g id="node3" class="node">
<title>CloukitNotificationOutletLoaderComponent </title>
<polygon fill="#fb8072" stroke="#000000" points="752.6256,-255 483.3744,-255 483.3744,-219 752.6256,-219 752.6256,-255"/>
<text text-anchor="middle" x="618" y="-232.8" font-family="Times,serif" font-size="14.00" fill="#000000">CloukitNotificationOutletLoaderComponent </text>
</g>
<!-- CloukitNotificationModule&#45;&gt;CloukitNotificationOutletLoaderComponent  -->
<g id="edge2" class="edge">
<title>CloukitNotificationModule&#45;&gt;CloukitNotificationOutletLoaderComponent </title>
<path fill="none" stroke="#000000" stroke-dasharray="5,2" d="M618,-190.1061C618,-190.1061 618,-208.991 618,-208.991"/>
<polygon fill="#000000" stroke="#000000" points="614.5001,-208.9909 618,-218.991 621.5001,-208.991 614.5001,-208.9909"/>
</g>
<!-- CloukitNotificationOutletComponent  -->
<g id="node4" class="node">
<title>CloukitNotificationOutletComponent </title>
<polygon fill="#fb8072" stroke="#000000" points="465.9837,-255 236.0163,-255 236.0163,-219 465.9837,-219 465.9837,-255"/>
<text text-anchor="middle" x="351" y="-232.8" font-family="Times,serif" font-size="14.00" fill="#000000">CloukitNotificationOutletComponent </text>
</g>
<!-- CloukitNotificationModule&#45;&gt;CloukitNotificationOutletComponent  -->
<g id="edge3" class="edge">
<title>CloukitNotificationModule&#45;&gt;CloukitNotificationOutletComponent </title>
<path fill="none" stroke="#000000" stroke-dasharray="5,2" d="M533.1527,-178C454.9712,-178 351,-178 351,-178 351,-178 351,-208.9775 351,-208.9775"/>
<polygon fill="#000000" stroke="#000000" points="347.5001,-208.9774 351,-218.9775 354.5001,-208.9775 347.5001,-208.9774"/>
</g>
<!-- CloukitNotificationComponent  -->
<g id="node5" class="node">
<title>CloukitNotificationComponent </title>
<polygon fill="#fb8072" stroke="#000000" points="218.4908,-255 23.5092,-255 23.5092,-219 218.4908,-219 218.4908,-255"/>
<text text-anchor="middle" x="121" y="-232.8" font-family="Times,serif" font-size="14.00" fill="#000000">CloukitNotificationComponent </text>
</g>
<!-- CloukitNotificationModule&#45;&gt;CloukitNotificationComponent  -->
<g id="edge4" class="edge">
<title>CloukitNotificationModule&#45;&gt;CloukitNotificationComponent </title>
<path fill="none" stroke="#000000" stroke-dasharray="5,2" d="M533.1274,-166C391.1782,-166 121,-166 121,-166 121,-166 121,-208.7157 121,-208.7157"/>
<polygon fill="#000000" stroke="#000000" points="117.5001,-208.7157 121,-218.7157 124.5001,-208.7158 117.5001,-208.7157"/>
</g>
<!-- CloukitNotificationModule&#45;&gt;DemoModule -->
<g id="edge8" class="edge">
<title>CloukitNotificationModule&#45;&gt;DemoModule</title>
<path fill="none" stroke="#000000" d="M702.8397,-172C735.9214,-172 766.0599,-172 766.0599,-172 766.0599,-172 766.0599,-243 766.0599,-243 766.0599,-243 801.9854,-243 801.9854,-243"/>
<polygon fill="#000000" stroke="#000000" points="801.9854,-246.5001 811.9854,-243 801.9853,-239.5001 801.9854,-246.5001"/>
</g>
<!-- CloukitThemeModule -->
<g id="node6" class="node">
<title>CloukitThemeModule</title>
<polygon fill="#8dd3c7" stroke="#000000" points="1249.4313,-190 1246.4313,-194 1225.4313,-194 1222.4313,-190 1108.5687,-190 1108.5687,-154 1249.4313,-154 1249.4313,-190"/>
<text text-anchor="middle" x="1179" y="-167.8" font-family="Times,serif" font-size="14.00" fill="#000000">CloukitThemeModule</text>
</g>
<!-- CloukitThemeModule&#45;&gt;DemoModule -->
<g id="edge6" class="edge">
<title>CloukitThemeModule&#45;&gt;DemoModule</title>
<path fill="none" stroke="#000000" d="M1179,-190.2843C1179,-211.3211 1179,-243 1179,-243 1179,-243 915.8735,-243 915.8735,-243"/>
<polygon fill="#000000" stroke="#000000" points="915.8735,-239.5001 905.8735,-243 915.8734,-246.5001 915.8735,-239.5001"/>
</g>
<!-- CloukitDropoutModule -->
<g id="node7" class="node">
<title>CloukitDropoutModule</title>
<polygon fill="#8dd3c7" stroke="#000000" points="1091.2162,-190 1088.2162,-194 1067.2162,-194 1064.2162,-190 942.7838,-190 942.7838,-154 1091.2162,-154 1091.2162,-190"/>
<text text-anchor="middle" x="1017" y="-167.8" font-family="Times,serif" font-size="14.00" fill="#000000">CloukitDropoutModule</text>
</g>
<!-- CloukitDropoutModule&#45;&gt;DemoModule -->
<g id="edge7" class="edge">
<title>CloukitDropoutModule&#45;&gt;DemoModule</title>
<path fill="none" stroke="#000000" d="M1017,-190.0225C1017,-207.3734 1017,-231 1017,-231 1017,-231 915.9774,-231 915.9774,-231"/>
<polygon fill="#000000" stroke="#000000" points="915.9775,-227.5001 905.9774,-231 915.9774,-234.5001 915.9775,-227.5001"/>
</g>
<!-- CloukitStoryModule -->
<g id="node8" class="node">
<title>CloukitStoryModule</title>
<polygon fill="#8dd3c7" stroke="#000000" points="924.892,-190 921.892,-194 900.892,-194 897.892,-190 793.108,-190 793.108,-154 924.892,-154 924.892,-190"/>
<text text-anchor="middle" x="859" y="-167.8" font-family="Times,serif" font-size="14.00" fill="#000000">CloukitStoryModule</text>
</g>
<!-- CloukitStoryModule&#45;&gt;DemoModule -->
<g id="edge9" class="edge">
<title>CloukitStoryModule&#45;&gt;DemoModule</title>
<path fill="none" stroke="#000000" d="M859,-190.1061C859,-190.1061 859,-208.991 859,-208.991"/>
<polygon fill="#000000" stroke="#000000" points="855.5001,-208.9909 859,-218.991 862.5001,-208.991 855.5001,-208.9909"/>
</g>
<!-- DemoComponent  -->
<g id="node10" class="node">
<title>DemoComponent </title>
<polygon fill="#fb8072" stroke="#000000" points="918.5442,-323 799.4558,-323 799.4558,-287 918.5442,-287 918.5442,-323"/>
<text text-anchor="middle" x="859" y="-300.8" font-family="Times,serif" font-size="14.00" fill="#000000">DemoComponent </text>
</g>
<!-- DemoModule&#45;&gt;DemoComponent  -->
<g id="edge10" class="edge">
<title>DemoModule&#45;&gt;DemoComponent </title>
<path fill="none" stroke="#000000" stroke-dasharray="5,2" d="M859,-255.2228C859,-255.2228 859,-276.7269 859,-276.7269"/>
<polygon fill="#000000" stroke="#000000" points="855.5001,-276.7269 859,-286.7269 862.5001,-276.727 855.5001,-276.7269"/>
</g>
</g>
</svg>
