<?xml version="1.0" encoding="UTF-8" standalone="no"?>
<!DOCTYPE svg PUBLIC "-//W3C//DTD SVG 1.1//EN"
 "http://www.w3.org/Graphics/SVG/1.1/DTD/svg11.dtd">
<!-- Generated by graphviz version 2.40.1 (20161225.0304)
 -->
<!-- Title: dependencies Pages: 1 -->
<svg width="1030pt" height="284pt"
 viewBox="0.00 0.00 1030.00 284.00" xmlns="http://www.w3.org/2000/svg" xmlns:xlink="http://www.w3.org/1999/xlink">
<g id="graph0" class="graph" transform="scale(1 1) rotate(0) translate(4 280)">
<title>dependencies</title>
<polygon fill="#ffffff" stroke="transparent" points="-4,4 -4,-280 1026,-280 1026,4 -4,4"/>
<text text-anchor="start" x="490.0091" y="-42.4" font-family="sans-serif" font-weight="bold" font-size="14.00" fill="#000000">Legend</text>
<polygon fill="#ffffb3" stroke="transparent" points="277,-10 277,-30 297,-30 297,-10 277,-10"/>
<text text-anchor="start" x="300.629" y="-15.4" font-family="sans-serif" font-size="14.00" fill="#000000"> &#160;Declarations</text>
<polygon fill="#8dd3c7" stroke="transparent" points="390,-10 390,-30 410,-30 410,-10 390,-10"/>
<text text-anchor="start" x="413.7251" y="-15.4" font-family="sans-serif" font-size="14.00" fill="#000000"> &#160;Module</text>
<polygon fill="#80b1d3" stroke="transparent" points="476,-10 476,-30 496,-30 496,-10 476,-10"/>
<text text-anchor="start" x="499.7812" y="-15.4" font-family="sans-serif" font-size="14.00" fill="#000000"> &#160;Bootstrap</text>
<polygon fill="#fdb462" stroke="transparent" points="573,-10 573,-30 593,-30 593,-10 573,-10"/>
<text text-anchor="start" x="596.6732" y="-15.4" font-family="sans-serif" font-size="14.00" fill="#000000"> &#160;Providers</text>
<polygon fill="#fb8072" stroke="transparent" points="669,-10 669,-30 689,-30 689,-10 669,-10"/>
<text text-anchor="start" x="692.7258" y="-15.4" font-family="sans-serif" font-size="14.00" fill="#000000"> &#160;Exports</text>
<g id="clust1" class="cluster">
<title>cluster_CloukitNotificationModule</title>
<polygon fill="none" stroke="#000000" stroke-dasharray="1,5" points="8,-70 8,-268 1014,-268 1014,-70 8,-70"/>
</g>
<g id="clust2" class="cluster">
<title>cluster_CloukitNotificationModule_declarations</title>
<polygon fill="none" stroke="#000000" points="272,-78 272,-130 1006,-130 1006,-78 272,-78"/>
</g>
<g id="clust7" class="cluster">
<title>cluster_CloukitNotificationModule_exports</title>
<polygon fill="none" stroke="#000000" points="150,-208 150,-260 895,-260 895,-208 150,-208"/>
</g>
<g id="clust9" class="cluster">
<title>cluster_CloukitNotificationModule_providers</title>
<polygon fill="none" stroke="#000000" points="16,-78 16,-130 264,-130 264,-78 16,-78"/>
</g>
<!-- CloukitNotificationOutletLoaderComponent -->
<g id="node1" class="node">
<title>CloukitNotificationOutletLoaderComponent</title>
<polygon fill="#ffffb3" stroke="#000000" points="997.6259,-122 732.3741,-122 732.3741,-86 997.6259,-86 997.6259,-122"/>
<text text-anchor="middle" x="865" y="-99.8" font-family="Times,serif" font-size="14.00" fill="#000000">CloukitNotificationOutletLoaderComponent</text>
</g>
<!-- CloukitNotificationModule -->
<g id="node4" class="node">
<title>CloukitNotificationModule</title>
<polygon fill="#8dd3c7" stroke="#000000" points="569.7077,-187 566.7077,-191 545.7077,-191 542.7077,-187 400.2923,-187 400.2923,-151 569.7077,-151 569.7077,-187"/>
<text text-anchor="middle" x="485" y="-164.8" font-family="Times,serif" font-size="14.00" fill="#000000">CloukitNotificationModule</text>
</g>
<!-- CloukitNotificationOutletLoaderComponent&#45;&gt;CloukitNotificationModule -->
<g id="edge1" class="edge">
<title>CloukitNotificationOutletLoaderComponent&#45;&gt;CloukitNotificationModule</title>
<path fill="none" stroke="#000000" d="M809.375,-122.0225C809.375,-139.3734 809.375,-163 809.375,-163 809.375,-163 579.802,-163 579.802,-163"/>
<polygon fill="#000000" stroke="#000000" points="579.8021,-159.5001 569.802,-163 579.802,-166.5001 579.8021,-159.5001"/>
</g>
<!-- CloukitNotificationOutletComponent -->
<g id="node2" class="node">
<title>CloukitNotificationOutletComponent</title>
<polygon fill="#ffffb3" stroke="#000000" points="713.9832,-122 488.0168,-122 488.0168,-86 713.9832,-86 713.9832,-122"/>
<text text-anchor="middle" x="601" y="-99.8" font-family="Times,serif" font-size="14.00" fill="#000000">CloukitNotificationOutletComponent</text>
</g>
<!-- CloukitNotificationOutletComponent&#45;&gt;CloukitNotificationModule -->
<g id="edge2" class="edge">
<title>CloukitNotificationOutletComponent&#45;&gt;CloukitNotificationModule</title>
<path fill="none" stroke="#000000" d="M528.8061,-122.1061C528.8061,-122.1061 528.8061,-140.991 528.8061,-140.991"/>
<polygon fill="#000000" stroke="#000000" points="525.3062,-140.9909 528.8061,-150.991 532.3062,-140.991 525.3062,-140.9909"/>
</g>
<!-- CloukitNotificationComponent -->
<g id="node3" class="node">
<title>CloukitNotificationComponent</title>
<polygon fill="#ffffb3" stroke="#000000" points="470.4902,-122 279.5098,-122 279.5098,-86 470.4902,-86 470.4902,-122"/>
<text text-anchor="middle" x="375" y="-99.8" font-family="Times,serif" font-size="14.00" fill="#000000">CloukitNotificationComponent</text>
</g>
<!-- CloukitNotificationComponent&#45;&gt;CloukitNotificationModule -->
<g id="edge3" class="edge">
<title>CloukitNotificationComponent&#45;&gt;CloukitNotificationModule</title>
<path fill="none" stroke="#000000" d="M435.4457,-122.1061C435.4457,-122.1061 435.4457,-140.991 435.4457,-140.991"/>
<polygon fill="#000000" stroke="#000000" points="431.9457,-140.9909 435.4457,-150.991 438.9457,-140.991 431.9457,-140.9909"/>
</g>
<!-- CloukitNotificationOutletLoaderComponent  -->
<g id="node5" class="node">
<title>CloukitNotificationOutletLoaderComponent </title>
<polygon fill="#fb8072" stroke="#000000" points="886.6256,-252 617.3744,-252 617.3744,-216 886.6256,-216 886.6256,-252"/>
<text text-anchor="middle" x="752" y="-229.8" font-family="Times,serif" font-size="14.00" fill="#000000">CloukitNotificationOutletLoaderComponent </text>
</g>
<!-- CloukitNotificationModule&#45;&gt;CloukitNotificationOutletLoaderComponent  -->
<g id="edge4" class="edge">
<title>CloukitNotificationModule&#45;&gt;CloukitNotificationOutletLoaderComponent </title>
<path fill="none" stroke="#000000" stroke-dasharray="5,2" d="M569.8012,-175C616.7537,-175 665.7144,-175 665.7144,-175 665.7144,-175 665.7144,-205.9775 665.7144,-205.9775"/>
<polygon fill="#000000" stroke="#000000" points="662.2145,-205.9774 665.7144,-215.9775 669.2145,-205.9775 662.2145,-205.9774"/>
</g>
<!-- CloukitNotificationOutletComponent  -->
<g id="node6" class="node">
<title>CloukitNotificationOutletComponent </title>
<polygon fill="#fb8072" stroke="#000000" points="599.9837,-252 370.0163,-252 370.0163,-216 599.9837,-216 599.9837,-252"/>
<text text-anchor="middle" x="485" y="-229.8" font-family="Times,serif" font-size="14.00" fill="#000000">CloukitNotificationOutletComponent </text>
</g>
<!-- CloukitNotificationModule&#45;&gt;CloukitNotificationOutletComponent  -->
<g id="edge5" class="edge">
<title>CloukitNotificationModule&#45;&gt;CloukitNotificationOutletComponent </title>
<path fill="none" stroke="#000000" stroke-dasharray="5,2" d="M485,-187.1061C485,-187.1061 485,-205.991 485,-205.991"/>
<polygon fill="#000000" stroke="#000000" points="481.5001,-205.9909 485,-215.991 488.5001,-205.991 481.5001,-205.9909"/>
</g>
<!-- CloukitNotificationComponent  -->
<g id="node7" class="node">
<title>CloukitNotificationComponent </title>
<polygon fill="#fb8072" stroke="#000000" points="352.4908,-252 157.5092,-252 157.5092,-216 352.4908,-216 352.4908,-252"/>
<text text-anchor="middle" x="255" y="-229.8" font-family="Times,serif" font-size="14.00" fill="#000000">CloukitNotificationComponent </text>
</g>
<!-- CloukitNotificationModule&#45;&gt;CloukitNotificationComponent  -->
<g id="edge6" class="edge">
<title>CloukitNotificationModule&#45;&gt;CloukitNotificationComponent </title>
<path fill="none" stroke="#000000" stroke-dasharray="5,2" d="M399.942,-175C357.8266,-175 315.875,-175 315.875,-175 315.875,-175 315.875,-205.9775 315.875,-205.9775"/>
<polygon fill="#000000" stroke="#000000" points="312.3751,-205.9774 315.875,-215.9775 319.3751,-205.9775 312.3751,-205.9774"/>
</g>
<!-- CloukitNotificationService -->
<g id="node8" class="node">
<title>CloukitNotificationService</title>
<ellipse fill="#fdb462" stroke="#000000" cx="140" cy="-104" rx="115.7638" ry="18"/>
<text text-anchor="middle" x="140" y="-99.8" font-family="Times,serif" font-size="14.00" fill="#000000">CloukitNotificationService</text>
</g>
<!-- CloukitNotificationService&#45;&gt;CloukitNotificationModule -->
<g id="edge7" class="edge">
<title>CloukitNotificationService&#45;&gt;CloukitNotificationModule</title>
<path fill="none" stroke="#000000" d="M206.6934,-118.8882C206.6934,-136.3665 206.6934,-163 206.6934,-163 206.6934,-163 390.3653,-163 390.3653,-163"/>
<polygon fill="#000000" stroke="#000000" points="390.3653,-166.5001 400.3653,-163 390.3653,-159.5001 390.3653,-166.5001"/>
</g>
</g>
</svg>
