<?xml version="1.0" encoding="UTF-8" standalone="no"?>
<!DOCTYPE svg PUBLIC "-//W3C//DTD SVG 1.1//EN"
 "http://www.w3.org/Graphics/SVG/1.1/DTD/svg11.dtd">
<!-- Generated by graphviz version 2.40.1 (20161225.0304)
 -->
<!-- Title: dependencies Pages: 1 -->
<svg width="1116pt" height="355pt"
 viewBox="0.00 0.00 1116.00 355.00" xmlns="http://www.w3.org/2000/svg" xmlns:xlink="http://www.w3.org/1999/xlink">
<g id="graph0" class="graph" transform="scale(1 1) rotate(0) translate(4 351)">
<title>dependencies</title>
<polygon fill="#ffffff" stroke="transparent" points="-4,4 -4,-351 1112,-351 1112,4 -4,4"/>
<text text-anchor="start" x="533.0091" y="-42.4" font-family="sans-serif" font-weight="bold" font-size="14.00" fill="#000000">Legend</text>
<polygon fill="#ffffb3" stroke="transparent" points="320,-10 320,-30 340,-30 340,-10 320,-10"/>
<text text-anchor="start" x="343.629" y="-15.4" font-family="sans-serif" font-size="14.00" fill="#000000"> &#160;Declarations</text>
<polygon fill="#8dd3c7" stroke="transparent" points="433,-10 433,-30 453,-30 453,-10 433,-10"/>
<text text-anchor="start" x="456.7251" y="-15.4" font-family="sans-serif" font-size="14.00" fill="#000000"> &#160;Module</text>
<polygon fill="#80b1d3" stroke="transparent" points="519,-10 519,-30 539,-30 539,-10 519,-10"/>
<text text-anchor="start" x="542.7812" y="-15.4" font-family="sans-serif" font-size="14.00" fill="#000000"> &#160;Bootstrap</text>
<polygon fill="#fdb462" stroke="transparent" points="616,-10 616,-30 636,-30 636,-10 616,-10"/>
<text text-anchor="start" x="639.6732" y="-15.4" font-family="sans-serif" font-size="14.00" fill="#000000"> &#160;Providers</text>
<polygon fill="#fb8072" stroke="transparent" points="712,-10 712,-30 732,-30 732,-10 712,-10"/>
<text text-anchor="start" x="735.7258" y="-15.4" font-family="sans-serif" font-size="14.00" fill="#000000"> &#160;Exports</text>
<g id="clust1" class="cluster">
<title>cluster_CloukitNotificationModule</title>
<polygon fill="none" stroke="#000000" stroke-dasharray="1,5" points="8,-70 8,-271 770,-271 770,-70 8,-70"/>
</g>
<g id="clust3" class="cluster">
<title>cluster_CloukitNotificationModule_imports</title>
<polygon fill="none" stroke="#000000" points="468,-78 468,-130 762,-130 762,-78 468,-78"/>
</g>
<g id="clust4" class="cluster">
<title>cluster_CloukitNotificationModule_exports</title>
<polygon fill="none" stroke="#000000" points="16,-211 16,-263 762,-263 762,-211 16,-211"/>
</g>
<g id="clust7" class="cluster">
<title>cluster_DemoModule</title>
<polygon fill="none" stroke="#000000" stroke-dasharray="1,5" points="778,-138 778,-339 1100,-339 1100,-138 778,-138"/>
</g>
<g id="clust9" class="cluster">
<title>cluster_DemoModule_imports</title>
<polygon fill="none" stroke="#000000" points="786,-146 786,-198 1092,-198 1092,-146 786,-146"/>
</g>
<g id="clust10" class="cluster">
<title>cluster_DemoModule_exports</title>
<polygon fill="none" stroke="#000000" points="786,-279 786,-331 922,-331 922,-279 786,-279"/>
</g>
<!-- CommonModule -->
<g id="node1" class="node">
<title>CommonModule</title>
<polygon fill="#8dd3c7" stroke="#000000" points="587.6681,-122 584.6681,-126 563.6681,-126 560.6681,-122 476.3319,-122 476.3319,-86 587.6681,-86 587.6681,-122"/>
<text text-anchor="middle" x="532" y="-99.8" font-family="Times,serif" font-size="14.00" fill="#000000">CommonModule</text>
</g>
<!-- CloukitNotificationModule -->
<g id="node3" class="node">
<title>CloukitNotificationModule</title>
<polygon fill="#8dd3c7" stroke="#000000" points="626.7077,-190 623.7077,-194 602.7077,-194 599.7077,-190 457.2923,-190 457.2923,-154 626.7077,-154 626.7077,-190"/>
<text text-anchor="middle" x="542" y="-167.8" font-family="Times,serif" font-size="14.00" fill="#000000">CloukitNotificationModule</text>
</g>
<!-- CommonModule&#45;&gt;CloukitNotificationModule -->
<g id="edge1" class="edge">
<title>CommonModule&#45;&gt;CloukitNotificationModule</title>
<path fill="none" stroke="#000000" d="M513.3887,-122.2228C513.3887,-122.2228 513.3887,-143.7269 513.3887,-143.7269"/>
<polygon fill="#000000" stroke="#000000" points="509.8888,-143.7269 513.3887,-153.7269 516.8888,-143.727 509.8888,-143.7269"/>
</g>
<!-- DemoModule -->
<g id="node9" class="node">
<title>DemoModule</title>
<polygon fill="#8dd3c7" stroke="#000000" points="889.7619,-255 886.7619,-259 865.7619,-259 862.7619,-255 796.2381,-255 796.2381,-219 889.7619,-219 889.7619,-255"/>
<text text-anchor="middle" x="843" y="-232.8" font-family="Times,serif" font-size="14.00" fill="#000000">DemoModule</text>
</g>
<!-- CommonModule&#45;&gt;DemoModule -->
<g id="edge6" class="edge">
<title>CommonModule&#45;&gt;DemoModule</title>
<path fill="none" stroke="#000000" d="M550.6113,-122.1944C550.6113,-130.2782 550.6113,-138 550.6113,-138 550.6113,-138 774.081,-138 774.081,-138 774.081,-138 774.081,-237 774.081,-237 774.081,-237 785.8874,-237 785.8874,-237"/>
<polygon fill="#000000" stroke="#000000" points="785.8874,-240.5001 795.8874,-237 785.8874,-233.5001 785.8874,-240.5001"/>
</g>
<!-- CloukitDropoutModule -->
<g id="node2" class="node">
<title>CloukitDropoutModule</title>
<polygon fill="#8dd3c7" stroke="#000000" points="754.2162,-122 751.2162,-126 730.2162,-126 727.2162,-122 605.7838,-122 605.7838,-86 754.2162,-86 754.2162,-122"/>
<text text-anchor="middle" x="680" y="-99.8" font-family="Times,serif" font-size="14.00" fill="#000000">CloukitDropoutModule</text>
</g>
<!-- CloukitDropoutModule&#45;&gt;CloukitNotificationModule -->
<g id="edge2" class="edge">
<title>CloukitDropoutModule&#45;&gt;CloukitNotificationModule</title>
<path fill="none" stroke="#000000" d="M616.2479,-122.2228C616.2479,-122.2228 616.2479,-143.7269 616.2479,-143.7269"/>
<polygon fill="#000000" stroke="#000000" points="612.748,-143.7269 616.2479,-153.7269 619.748,-143.727 612.748,-143.7269"/>
</g>
<!-- CloukitDropoutModule&#45;&gt;DemoModule -->
<g id="edge9" class="edge">
<title>CloukitDropoutModule&#45;&gt;DemoModule</title>
<path fill="none" stroke="#000000" d="M754.2459,-104C771.0618,-104 784.0675,-104 784.0675,-104 784.0675,-104 784.0675,-228 784.0675,-228 784.0675,-228 785.9934,-228 785.9934,-228"/>
<polygon fill="#000000" stroke="#000000" points="785.9934,-231.5001 795.9934,-228 785.9933,-224.5001 785.9934,-231.5001"/>
</g>
<!-- CloukitNotificationOutletLoaderComponent  -->
<g id="node4" class="node">
<title>CloukitNotificationOutletLoaderComponent </title>
<polygon fill="#fb8072" stroke="#000000" points="293.6256,-255 24.3744,-255 24.3744,-219 293.6256,-219 293.6256,-255"/>
<text text-anchor="middle" x="159" y="-232.8" font-family="Times,serif" font-size="14.00" fill="#000000">CloukitNotificationOutletLoaderComponent </text>
</g>
<!-- CloukitNotificationModule&#45;&gt;CloukitNotificationOutletLoaderComponent  -->
<g id="edge3" class="edge">
<title>CloukitNotificationModule&#45;&gt;CloukitNotificationOutletLoaderComponent </title>
<path fill="none" stroke="#000000" stroke-dasharray="5,2" d="M456.9999,-172C344.165,-172 159,-172 159,-172 159,-172 159,-208.8939 159,-208.8939"/>
<polygon fill="#000000" stroke="#000000" points="155.5001,-208.8938 159,-218.8939 162.5001,-208.8939 155.5001,-208.8938"/>
</g>
<!-- CloukitNotificationOutletComponent  -->
<g id="node5" class="node">
<title>CloukitNotificationOutletComponent </title>
<polygon fill="#fb8072" stroke="#000000" points="753.9837,-255 524.0163,-255 524.0163,-219 753.9837,-219 753.9837,-255"/>
<text text-anchor="middle" x="639" y="-232.8" font-family="Times,serif" font-size="14.00" fill="#000000">CloukitNotificationOutletComponent </text>
</g>
<!-- CloukitNotificationModule&#45;&gt;CloukitNotificationOutletComponent  -->
<g id="edge4" class="edge">
<title>CloukitNotificationModule&#45;&gt;CloukitNotificationOutletComponent </title>
<path fill="none" stroke="#000000" stroke-dasharray="5,2" d="M575.4311,-190.1061C575.4311,-190.1061 575.4311,-208.991 575.4311,-208.991"/>
<polygon fill="#000000" stroke="#000000" points="571.9312,-208.9909 575.4311,-218.991 578.9312,-208.991 571.9312,-208.9909"/>
</g>
<!-- CloukitNotificationComponent  -->
<g id="node6" class="node">
<title>CloukitNotificationComponent </title>
<polygon fill="#fb8072" stroke="#000000" points="506.4908,-255 311.5092,-255 311.5092,-219 506.4908,-219 506.4908,-255"/>
<text text-anchor="middle" x="409" y="-232.8" font-family="Times,serif" font-size="14.00" fill="#000000">CloukitNotificationComponent </text>
</g>
<!-- CloukitNotificationModule&#45;&gt;CloukitNotificationComponent  -->
<g id="edge5" class="edge">
<title>CloukitNotificationModule&#45;&gt;CloukitNotificationComponent </title>
<path fill="none" stroke="#000000" stroke-dasharray="5,2" d="M481.8207,-190.1061C481.8207,-190.1061 481.8207,-208.991 481.8207,-208.991"/>
<polygon fill="#000000" stroke="#000000" points="478.3207,-208.9909 481.8207,-218.991 485.3207,-208.991 478.3207,-208.9909"/>
</g>
<!-- CloukitNotificationModule&#45;&gt;DemoModule -->
<g id="edge8" class="edge">
<title>CloukitNotificationModule&#45;&gt;DemoModule</title>
<path fill="none" stroke="#000000" d="M626.9151,-172C689.6132,-172 764.0945,-172 764.0945,-172 764.0945,-172 764.0945,-246 764.0945,-246 764.0945,-246 786.1884,-246 786.1884,-246"/>
<polygon fill="#000000" stroke="#000000" points="786.1884,-249.5001 796.1884,-246 786.1884,-242.5001 786.1884,-249.5001"/>
</g>
<!-- CloukitThemeModule -->
<g id="node7" class="node">
<title>CloukitThemeModule</title>
<polygon fill="#8dd3c7" stroke="#000000" points="1084.4313,-190 1081.4313,-194 1060.4313,-194 1057.4313,-190 943.5687,-190 943.5687,-154 1084.4313,-154 1084.4313,-190"/>
<text text-anchor="middle" x="1014" y="-167.8" font-family="Times,serif" font-size="14.00" fill="#000000">CloukitThemeModule</text>
</g>
<!-- CloukitThemeModule&#45;&gt;DemoModule -->
<g id="edge7" class="edge">
<title>CloukitThemeModule&#45;&gt;DemoModule</title>
<path fill="none" stroke="#000000" d="M1014,-190.1061C1014,-209.3391 1014,-237 1014,-237 1014,-237 900.1792,-237 900.1792,-237"/>
<polygon fill="#000000" stroke="#000000" points="900.1792,-233.5001 890.1792,-237 900.1791,-240.5001 900.1792,-233.5001"/>
</g>
<!-- CloukitStoryModule -->
<g id="node8" class="node">
<title>CloukitStoryModule</title>
<polygon fill="#8dd3c7" stroke="#000000" points="925.892,-190 922.892,-194 901.892,-194 898.892,-190 794.108,-190 794.108,-154 925.892,-154 925.892,-190"/>
<text text-anchor="middle" x="860" y="-167.8" font-family="Times,serif" font-size="14.00" fill="#000000">CloukitStoryModule</text>
</g>
<!-- CloukitStoryModule&#45;&gt;DemoModule -->
<g id="edge10" class="edge">
<title>CloukitStoryModule&#45;&gt;DemoModule</title>
<path fill="none" stroke="#000000" d="M843,-190.1061C843,-190.1061 843,-208.991 843,-208.991"/>
<polygon fill="#000000" stroke="#000000" points="839.5001,-208.9909 843,-218.991 846.5001,-208.991 839.5001,-208.9909"/>
</g>
<!-- DemoComponent  -->
<g id="node10" class="node">
<title>DemoComponent </title>
<polygon fill="#fb8072" stroke="#000000" points="913.5442,-323 794.4558,-323 794.4558,-287 913.5442,-287 913.5442,-323"/>
<text text-anchor="middle" x="854" y="-300.8" font-family="Times,serif" font-size="14.00" fill="#000000">DemoComponent </text>
</g>
<!-- DemoModule&#45;&gt;DemoComponent  -->
<g id="edge11" class="edge">
<title>DemoModule&#45;&gt;DemoComponent </title>
<path fill="none" stroke="#000000" stroke-dasharray="5,2" d="M843,-255.2228C843,-255.2228 843,-276.7269 843,-276.7269"/>
<polygon fill="#000000" stroke="#000000" points="839.5001,-276.7269 843,-286.7269 846.5001,-276.727 839.5001,-276.7269"/>
</g>
</g>
</svg>
