<?xml version="1.0" encoding="UTF-8" standalone="no"?>
<!DOCTYPE svg PUBLIC "-//W3C//DTD SVG 1.1//EN"
 "http://www.w3.org/Graphics/SVG/1.1/DTD/svg11.dtd">
<!-- Generated by graphviz version 2.40.1 (20161225.0304)
 -->
<!-- Title: dependencies Pages: 1 -->
<svg width="1332pt" height="284pt"
 viewBox="0.00 0.00 1332.00 284.00" xmlns="http://www.w3.org/2000/svg" xmlns:xlink="http://www.w3.org/1999/xlink">
<g id="graph0" class="graph" transform="scale(1 1) rotate(0) translate(4 280)">
<title>dependencies</title>
<polygon fill="#ffffff" stroke="transparent" points="-4,4 -4,-280 1328,-280 1328,4 -4,4"/>
<text text-anchor="start" x="641.0091" y="-42.4" font-family="sans-serif" font-weight="bold" font-size="14.00" fill="#000000">Legend</text>
<polygon fill="#ffffb3" stroke="transparent" points="428,-10 428,-30 448,-30 448,-10 428,-10"/>
<text text-anchor="start" x="451.629" y="-15.4" font-family="sans-serif" font-size="14.00" fill="#000000"> &#160;Declarations</text>
<polygon fill="#8dd3c7" stroke="transparent" points="541,-10 541,-30 561,-30 561,-10 541,-10"/>
<text text-anchor="start" x="564.7251" y="-15.4" font-family="sans-serif" font-size="14.00" fill="#000000"> &#160;Module</text>
<polygon fill="#80b1d3" stroke="transparent" points="627,-10 627,-30 647,-30 647,-10 627,-10"/>
<text text-anchor="start" x="650.7812" y="-15.4" font-family="sans-serif" font-size="14.00" fill="#000000"> &#160;Bootstrap</text>
<polygon fill="#fdb462" stroke="transparent" points="724,-10 724,-30 744,-30 744,-10 724,-10"/>
<text text-anchor="start" x="747.6732" y="-15.4" font-family="sans-serif" font-size="14.00" fill="#000000"> &#160;Providers</text>
<polygon fill="#fb8072" stroke="transparent" points="820,-10 820,-30 840,-30 840,-10 820,-10"/>
<text text-anchor="start" x="843.7258" y="-15.4" font-family="sans-serif" font-size="14.00" fill="#000000"> &#160;Exports</text>
<g id="clust1" class="cluster">
<title>cluster_CloukitNotificationModule</title>
<polygon fill="none" stroke="#000000" stroke-dasharray="1,5" points="8,-70 8,-268 1316,-268 1316,-70 8,-70"/>
</g>
<g id="clust2" class="cluster">
<title>cluster_CloukitNotificationModule_declarations</title>
<polygon fill="none" stroke="#000000" points="574,-78 574,-130 1308,-130 1308,-78 574,-78"/>
</g>
<g id="clust6" class="cluster">
<title>cluster_CloukitNotificationModule_imports</title>
<polygon fill="none" stroke="#000000" points="272,-78 272,-130 566,-130 566,-78 272,-78"/>
</g>
<g id="clust7" class="cluster">
<title>cluster_CloukitNotificationModule_exports</title>
<polygon fill="none" stroke="#000000" points="254,-208 254,-260 999,-260 999,-208 254,-208"/>
</g>
<g id="clust9" class="cluster">
<title>cluster_CloukitNotificationModule_providers</title>
<polygon fill="none" stroke="#000000" points="16,-78 16,-130 264,-130 264,-78 16,-78"/>
</g>
<!-- CloukitNotificationOutletLoaderComponent -->
<g id="node1" class="node">
<title>CloukitNotificationOutletLoaderComponent</title>
<polygon fill="#ffffb3" stroke="#000000" points="1299.6259,-122 1034.3741,-122 1034.3741,-86 1299.6259,-86 1299.6259,-122"/>
<text text-anchor="middle" x="1167" y="-99.8" font-family="Times,serif" font-size="14.00" fill="#000000">CloukitNotificationOutletLoaderComponent</text>
</g>
<!-- CloukitNotificationModule -->
<g id="node4" class="node">
<title>CloukitNotificationModule</title>
<polygon fill="#8dd3c7" stroke="#000000" points="673.7077,-187 670.7077,-191 649.7077,-191 646.7077,-187 504.2923,-187 504.2923,-151 673.7077,-151 673.7077,-187"/>
<text text-anchor="middle" x="589" y="-164.8" font-family="Times,serif" font-size="14.00" fill="#000000">CloukitNotificationModule</text>
</g>
<!-- CloukitNotificationOutletLoaderComponent&#45;&gt;CloukitNotificationModule -->
<g id="edge1" class="edge">
<title>CloukitNotificationOutletLoaderComponent&#45;&gt;CloukitNotificationModule</title>
<path fill="none" stroke="#000000" d="M1167,-122.1061C1167,-141.3391 1167,-169 1167,-169 1167,-169 683.6652,-169 683.6652,-169"/>
<polygon fill="#000000" stroke="#000000" points="683.6652,-165.5001 673.6652,-169 683.6651,-172.5001 683.6652,-165.5001"/>
</g>
<!-- CloukitNotificationOutletComponent -->
<g id="node2" class="node">
<title>CloukitNotificationOutletComponent</title>
<polygon fill="#ffffb3" stroke="#000000" points="1015.9832,-122 790.0168,-122 790.0168,-86 1015.9832,-86 1015.9832,-122"/>
<text text-anchor="middle" x="903" y="-99.8" font-family="Times,serif" font-size="14.00" fill="#000000">CloukitNotificationOutletComponent</text>
</g>
<!-- CloukitNotificationOutletComponent&#45;&gt;CloukitNotificationModule -->
<g id="edge2" class="edge">
<title>CloukitNotificationOutletComponent&#45;&gt;CloukitNotificationModule</title>
<path fill="none" stroke="#000000" d="M890.2856,-122.027C890.2856,-138.3976 890.2856,-160 890.2856,-160 890.2856,-160 683.7266,-160 683.7266,-160"/>
<polygon fill="#000000" stroke="#000000" points="683.7266,-156.5001 673.7266,-160 683.7266,-163.5001 683.7266,-156.5001"/>
</g>
<!-- CloukitNotificationComponent -->
<g id="node3" class="node">
<title>CloukitNotificationComponent</title>
<polygon fill="#ffffb3" stroke="#000000" points="772.4902,-122 581.5098,-122 581.5098,-86 772.4902,-86 772.4902,-122"/>
<text text-anchor="middle" x="677" y="-99.8" font-family="Times,serif" font-size="14.00" fill="#000000">CloukitNotificationComponent</text>
</g>
<!-- CloukitNotificationComponent&#45;&gt;CloukitNotificationModule -->
<g id="edge3" class="edge">
<title>CloukitNotificationComponent&#45;&gt;CloukitNotificationModule</title>
<path fill="none" stroke="#000000" d="M627.5544,-122.1061C627.5544,-122.1061 627.5544,-140.991 627.5544,-140.991"/>
<polygon fill="#000000" stroke="#000000" points="624.0544,-140.9909 627.5544,-150.991 631.0544,-140.991 624.0544,-140.9909"/>
</g>
<!-- CloukitNotificationOutletLoaderComponent  -->
<g id="node7" class="node">
<title>CloukitNotificationOutletLoaderComponent </title>
<polygon fill="#fb8072" stroke="#000000" points="990.6256,-252 721.3744,-252 721.3744,-216 990.6256,-216 990.6256,-252"/>
<text text-anchor="middle" x="856" y="-229.8" font-family="Times,serif" font-size="14.00" fill="#000000">CloukitNotificationOutletLoaderComponent </text>
</g>
<!-- CloukitNotificationModule&#45;&gt;CloukitNotificationOutletLoaderComponent  -->
<g id="edge6" class="edge">
<title>CloukitNotificationModule&#45;&gt;CloukitNotificationOutletLoaderComponent </title>
<path fill="none" stroke="#000000" stroke-dasharray="5,2" d="M673.9942,-178C711.3836,-178 746.9662,-178 746.9662,-178 746.9662,-178 746.9662,-205.973 746.9662,-205.973"/>
<polygon fill="#000000" stroke="#000000" points="743.4662,-205.973 746.9662,-215.973 750.4662,-205.973 743.4662,-205.973"/>
</g>
<!-- CloukitNotificationOutletComponent  -->
<g id="node8" class="node">
<title>CloukitNotificationOutletComponent </title>
<polygon fill="#fb8072" stroke="#000000" points="703.9837,-252 474.0163,-252 474.0163,-216 703.9837,-216 703.9837,-252"/>
<text text-anchor="middle" x="589" y="-229.8" font-family="Times,serif" font-size="14.00" fill="#000000">CloukitNotificationOutletComponent </text>
</g>
<!-- CloukitNotificationModule&#45;&gt;CloukitNotificationOutletComponent  -->
<g id="edge7" class="edge">
<title>CloukitNotificationModule&#45;&gt;CloukitNotificationOutletComponent </title>
<path fill="none" stroke="#000000" stroke-dasharray="5,2" d="M589,-187.1061C589,-187.1061 589,-205.991 589,-205.991"/>
<polygon fill="#000000" stroke="#000000" points="585.5001,-205.9909 589,-215.991 592.5001,-205.991 585.5001,-205.9909"/>
</g>
<!-- CloukitNotificationComponent  -->
<g id="node9" class="node">
<title>CloukitNotificationComponent </title>
<polygon fill="#fb8072" stroke="#000000" points="456.4908,-252 261.5092,-252 261.5092,-216 456.4908,-216 456.4908,-252"/>
<text text-anchor="middle" x="359" y="-229.8" font-family="Times,serif" font-size="14.00" fill="#000000">CloukitNotificationComponent </text>
</g>
<!-- CloukitNotificationModule&#45;&gt;CloukitNotificationComponent  -->
<g id="edge8" class="edge">
<title>CloukitNotificationModule&#45;&gt;CloukitNotificationComponent </title>
<path fill="none" stroke="#000000" stroke-dasharray="5,2" d="M504.0865,-178C475.7301,-178 451.2057,-178 451.2057,-178 451.2057,-178 451.2057,-205.973 451.2057,-205.973"/>
<polygon fill="#000000" stroke="#000000" points="447.7057,-205.973 451.2057,-215.973 454.7057,-205.973 447.7057,-205.973"/>
</g>
<!-- CommonModule -->
<g id="node5" class="node">
<title>CommonModule</title>
<polygon fill="#8dd3c7" stroke="#000000" points="557.6681,-122 554.6681,-126 533.6681,-126 530.6681,-122 446.3319,-122 446.3319,-86 557.6681,-86 557.6681,-122"/>
<text text-anchor="middle" x="502" y="-99.8" font-family="Times,serif" font-size="14.00" fill="#000000">CommonModule</text>
</g>
<!-- CommonModule&#45;&gt;CloukitNotificationModule -->
<g id="edge4" class="edge">
<title>CommonModule&#45;&gt;CloukitNotificationModule</title>
<path fill="none" stroke="#000000" d="M531.115,-122.1061C531.115,-122.1061 531.115,-140.991 531.115,-140.991"/>
<polygon fill="#000000" stroke="#000000" points="527.6151,-140.9909 531.115,-150.991 534.6151,-140.991 527.6151,-140.9909"/>
</g>
<!-- CloukitDropoutModule -->
<g id="node6" class="node">
<title>CloukitDropoutModule</title>
<polygon fill="#8dd3c7" stroke="#000000" points="428.2162,-122 425.2162,-126 404.2162,-126 401.2162,-122 279.7838,-122 279.7838,-86 428.2162,-86 428.2162,-122"/>
<text text-anchor="middle" x="354" y="-99.8" font-family="Times,serif" font-size="14.00" fill="#000000">CloukitDropoutModule</text>
</g>
<!-- CloukitDropoutModule&#45;&gt;CloukitNotificationModule -->
<g id="edge5" class="edge">
<title>CloukitDropoutModule&#45;&gt;CloukitNotificationModule</title>
<path fill="none" stroke="#000000" d="M354,-122.027C354,-138.3976 354,-160 354,-160 354,-160 494.1596,-160 494.1596,-160"/>
<polygon fill="#000000" stroke="#000000" points="494.1596,-163.5001 504.1596,-160 494.1596,-156.5001 494.1596,-163.5001"/>
</g>
<!-- CloukitNotificationService -->
<g id="node10" class="node">
<title>CloukitNotificationService</title>
<ellipse fill="#fdb462" stroke="#000000" cx="140" cy="-104" rx="115.7638" ry="18"/>
<text text-anchor="middle" x="140" y="-99.8" font-family="Times,serif" font-size="14.00" fill="#000000">CloukitNotificationService</text>
</g>
<!-- CloukitNotificationService&#45;&gt;CloukitNotificationModule -->
<g id="edge9" class="edge">
<title>CloukitNotificationService&#45;&gt;CloukitNotificationModule</title>
<path fill="none" stroke="#000000" d="M140,-122.1061C140,-141.3391 140,-169 140,-169 140,-169 494.2827,-169 494.2827,-169"/>
<polygon fill="#000000" stroke="#000000" points="494.2828,-172.5001 504.2827,-169 494.2827,-165.5001 494.2828,-172.5001"/>
</g>
</g>
</svg>
